<?xml version="1.0" standalone="no"?>
<!DOCTYPE svg PUBLIC "-//W3C//DTD SVG 20010904//EN"
 "http://www.w3.org/TR/2001/REC-SVG-20010904/DTD/svg10.dtd">
<svg version="1.0" xmlns="http://www.w3.org/2000/svg"
 width="512.000000pt" height="512.000000pt" viewBox="0 0 512.000000 512.000000"
 preserveAspectRatio="xMidYMid meet">
<metadata>
Created by potrace 1.14, written by Peter Selinger 2001-2017
</metadata>
<g transform="translate(0.000000,512.000000) scale(0.100000,-0.100000)"
fill="#000000" stroke="none">
<path d="M2347 5104 c-4 -4 -62 -8 -129 -10 -201 -5 -383 -18 -558 -41 -25 -3
-58 -7 -75 -9 -16 -1 -30 -3 -30 -4 0 -1 -9 -3 -20 -5 -32 -5 -96 -16 -119
-21 -11 -3 -30 -7 -41 -9 -11 -3 -30 -7 -42 -10 -13 -3 -33 -7 -44 -10 -43 -9
-135 -37 -189 -56 -30 -11 -59 -22 -65 -23 -46 -13 -259 -119 -275 -137 -3 -3
-22 -15 -42 -28 -21 -12 -38 -27 -38 -32 0 -6 -4 -8 -9 -5 -8 6 -205 -181
-242 -230 -30 -39 -94 -139 -109 -169 -8 -16 -18 -32 -22 -35 -28 -22 -141
-335 -175 -485 -20 -91 -23 -108 -29 -150 -4 -22 -10 -50 -15 -63 -6 -15 -5
-21 1 -17 6 4 6 -4 -1 -19 -6 -13 -21 -27 -32 -30 -12 -3 -19 -8 -15 -11 3 -3
-3 -45 -13 -93 -16 -80 -18 -156 -19 -925 l0 -837 25 4 c14 3 25 0 25 -5 0 -6
4 -8 9 -4 6 3 10 -3 10 -12 -1 -18 8 -78 11 -78 1 0 3 -16 6 -35 8 -67 12 -89
18 -99 4 -6 8 -28 10 -49 1 -21 5 -43 8 -48 3 -5 9 -25 14 -44 11 -49 11 -49
14 -55 1 -3 3 -8 5 -12 1 -5 4 -15 7 -23 3 -8 12 -35 19 -60 7 -25 20 -61 28
-80 9 -19 16 -39 16 -45 1 -13 104 -218 113 -225 4 -3 13 -17 21 -32 8 -15 22
-37 33 -47 10 -11 18 -24 18 -28 0 -5 9 -15 20 -23 11 -8 20 -20 20 -26 0 -6
43 -51 95 -100 107 -101 116 -108 205 -166 36 -24 67 -46 68 -51 2 -4 8 -5 13
-1 5 3 21 -4 35 -15 15 -11 30 -18 35 -15 5 3 9 0 9 -5 0 -6 5 -11 10 -11 6 0
29 -9 53 -20 23 -10 49 -20 57 -22 8 -2 17 -6 20 -9 4 -4 98 -36 135 -46 6 -1
46 -12 90 -24 44 -11 89 -23 100 -25 11 -2 34 -7 50 -10 17 -4 41 -8 55 -10
14 -1 25 -3 25 -4 0 -3 26 -7 85 -14 30 -3 69 -9 85 -12 17 -3 50 -7 75 -9
126 -11 220 -18 265 -19 28 -1 53 -5 57 -11 5 -6 8 -5 8 3 0 7 5 10 11 6 6 -4
88 -8 183 -11 94 -2 177 -6 184 -8 6 -2 12 1 12 8 0 7 3 8 8 2 8 -12 162 -14
162 -2 0 5 5 5 12 1 13 -8 78 -12 78 -4 0 3 57 5 128 4 70 0 133 4 140 9 8 6
12 6 12 -1 0 -6 8 -9 18 -7 9 2 17 4 17 5 0 1 34 3 75 5 119 6 234 15 250 19
8 3 48 8 88 11 41 4 86 10 100 14 15 5 35 7 45 5 9 -1 17 1 17 5 0 4 16 7 35
6 19 -1 35 1 35 6 0 4 8 8 18 7 9 0 29 3 45 6 15 3 37 8 50 11 12 2 45 11 74
18 28 8 54 12 57 9 3 -3 6 1 6 8 0 7 2 11 6 8 3 -3 35 5 72 19 37 13 78 28 92
32 41 13 125 54 131 64 3 5 8 7 10 6 17 -12 230 132 315 213 21 21 42 38 47
38 4 0 7 4 7 9 0 5 15 25 32 45 40 43 45 48 88 111 19 28 40 53 45 57 7 5 7 8
0 8 -5 0 -5 4 2 8 15 9 113 205 113 225 0 8 3 17 8 19 8 4 40 92 48 133 3 16
10 35 16 42 6 7 8 13 5 13 -3 0 0 15 8 34 8 18 12 36 9 39 -3 3 -1 14 5 25 6
10 11 36 13 56 1 20 5 36 9 36 4 0 7 10 7 23 0 19 8 62 12 62 1 0 3 18 6 40 6
58 9 68 18 84 7 10 6 12 -4 6 -10 -6 -11 -4 -4 6 10 16 15 50 14 97 0 19 3 31
8 28 5 -3 7 6 4 21 -3 17 -1 24 6 19 6 -3 14 -2 17 4 4 6 1 9 -6 8 -8 -2 -13
9 -15 29 -1 18 2 30 6 28 5 -3 12 0 16 6 4 7 3 9 -4 5 -6 -3 -13 -2 -17 4 -3
5 -2 10 3 10 6 0 13 7 16 16 3 8 2 12 -4 9 -14 -9 -12 9 3 24 8 10 9 15 1 18
-12 4 -7 50 7 59 13 8 12 1351 -1 1359 -6 4 -8 10 -5 15 3 4 -3 7 -13 6 -13
-1 -17 7 -17 37 0 20 -3 37 -6 37 -3 0 -6 6 -7 13 -3 22 -13 122 -14 135 -1 6
-4 12 -8 12 -4 0 -6 10 -5 23 1 12 -2 27 -7 34 -5 7 -7 16 -4 21 4 6 -24 125
-59 252 -29 107 -100 279 -137 333 -11 15 -17 27 -13 27 3 0 -5 15 -19 33 -15
19 -26 38 -26 44 0 5 -9 18 -20 28 -11 10 -20 22 -20 27 0 25 -205 230 -290
290 -94 66 -288 171 -317 171 -7 0 -13 3 -13 7 0 4 -7 7 -15 8 -8 1 -22 3 -30
4 -8 1 -15 5 -15 9 0 7 -59 24 -72 21 -5 -1 -8 3 -8 10 0 6 -3 9 -6 6 -3 -4
-20 -2 -37 3 -41 13 -63 19 -112 30 -77 18 -90 20 -107 22 -10 1 -18 4 -18 8
0 4 -16 6 -35 5 -19 -1 -35 1 -35 4 0 3 -8 6 -17 6 -10 1 -36 4 -58 7 -158 24
-395 44 -601 51 -50 1 -95 6 -102 9 -6 4 -13 3 -16 -2 -6 -9 -43 -7 -73 4 -7
2 -13 -1 -13 -7 0 -9 -3 -9 -12 0 -8 8 -17 8 -31 0 -14 -7 -22 -7 -26 1 -5 7
-17 8 -39 2 -19 -6 -34 -6 -37 0 -4 5 -11 9 -16 9 -6 0 -8 -4 -5 -8 3 -5 -1
-9 -9 -9 -8 0 -15 3 -15 7 0 3 -11 6 -25 6 -14 0 -25 -4 -25 -9 0 -5 -6 -5
-13 1 -7 6 -18 7 -26 3 -8 -5 -26 -5 -41 -1 -15 4 -33 4 -41 -1 -8 -4 -16 -4
-19 2 -4 5 -9 6 -13 3z"/>
<path d="M55 1569 c-4 -6 -5 -12 -2 -15 2 -3 7 2 10 11 7 17 1 20 -8 4z"/>
<path d="M6 1538 c3 -5 10 -6 15 -3 13 9 11 12 -6 12 -8 0 -12 -4 -9 -9z"/>
</g>
</svg>
